<svg xmlns="http://www.w3.org/2000/svg" viewBox="0 0 600 600" fill="none">
<defs>
  <linearGradient id="g1" x1="0" y1="0" x2="1" y2="1">
    <stop offset="0" stop-color="#1446a0"/>
    <stop offset="1" stop-color="#0d2f6e"/>
  </linearGradient>
  <linearGradient id="g2" x1="0" y1="0" x2="1" y2="1">
    <stop offset="0" stop-color="#f2c94c"/>
    <stop offset="1" stop-color="#d4a017"/>
  </linearGradient>
  <linearGradient id="g3" x1="0" y1="0" x2="1" y2="1">
    <stop offset="0" stop-color="#0e9f6e"/>
    <stop offset="1" stop-color="#0b7355"/>
  </linearGradient>
</defs>
<path d="M300 40C400 40 520 90 550 210C580 330 520 430 420 490C320 550 180 560 100 480C20 400 20 260 80 170C140 80 200 40 300 40Z" fill="url(#g1)" opacity="0.08"/>
<path d="M300 60C395 60 500 105 535 210C570 315 520 415 425 475C330 535 195 545 115 470C35 395 35 260 95 175C155 90 205 60 300 60Z" fill="url(#g1)" opacity="1" />
<path d="M300 240c-30-20-80-30-120-20v170c40-10 90 0 120 20 30-20 80-30 120-20V220c-40-10-90 0-120 20Z" fill="#ffffff"/>
<line x1="300" y1="240" x2="300" y2="410" stroke="#1446a0" stroke-width="4" opacity="0.5"/>
<g stroke="#1446a0" stroke-width="4" opacity="0.5" stroke-linecap="round">
<line x1="205" y1="250" x2="270" y2="260"/>
<line x1="205" y1="280" x2="270" y2="290"/>
<line x1="205" y1="310" x2="270" y2="320"/>
<line x1="330" y1="260" x2="395" y2="250"/>
<line x1="330" y1="290" x2="395" y2="280"/>
<line x1="330" y1="320" x2="395" y2="310"/>
</g>
<circle cx="420" cy="200" r="14" fill="#f2c94c"/>

</svg>