<svg xmlns="http://www.w3.org/2000/svg" viewBox="0 0 600 600" fill="none">
<defs>
  <linearGradient id="g1" x1="0" y1="0" x2="1" y2="1">
    <stop offset="0" stop-color="#1446a0"/>
    <stop offset="1" stop-color="#0d2f6e"/>
  </linearGradient>
  <linearGradient id="g2" x1="0" y1="0" x2="1" y2="1">
    <stop offset="0" stop-color="#f2c94c"/>
    <stop offset="1" stop-color="#d4a017"/>
  </linearGradient>
  <linearGradient id="g3" x1="0" y1="0" x2="1" y2="1">
    <stop offset="0" stop-color="#0e9f6e"/>
    <stop offset="1" stop-color="#0b7355"/>
  </linearGradient>
</defs>
<path d="M300 40C400 40 520 90 550 210C580 330 520 430 420 490C320 550 180 560 100 480C20 400 20 260 80 170C140 80 200 40 300 40Z" fill="url(#g1)" opacity="0.08"/>
<path d="M300 60C395 60 500 105 535 210C570 315 520 415 425 475C330 535 195 545 115 470C35 395 35 260 95 175C155 90 205 60 300 60Z" fill="url(#g1)" opacity="1" />
<rect x="220" y="220" width="160" height="160" rx="18" fill="#ffffff"/>
<rect x="255" y="255" width="90" height="90" rx="10" fill="#1446a0"/>
<g stroke="#ffffff" stroke-width="6" stroke-linecap="round">
<line x1="300" y1="150" x2="300" y2="220"/>
<line x1="300" y1="380" x2="300" y2="450"/>
<line x1="150" y1="300" x2="220" y2="300"/>
<line x1="380" y1="300" x2="450" y2="300"/>
<line x1="200" y1="200" x2="240" y2="240"/>
<line x1="400" y1="200" x2="360" y2="240"/>
<line x1="200" y1="400" x2="240" y2="360"/>
<line x1="400" y1="400" x2="360" y2="360"/>
</g>
<circle cx="300" cy="150" r="10" fill="#f2c94c"/>
<circle cx="300" cy="450" r="10" fill="#f2c94c"/>
<circle cx="150" cy="300" r="10" fill="#f2c94c"/>
<circle cx="450" cy="300" r="10" fill="#f2c94c"/>
<circle cx="200" cy="200" r="8" fill="#ffffff"/>
<circle cx="400" cy="200" r="8" fill="#ffffff"/>
<circle cx="200" cy="400" r="8" fill="#ffffff"/>
<circle cx="400" cy="400" r="8" fill="#ffffff"/>

</svg>