<svg xmlns="http://www.w3.org/2000/svg" viewBox="0 0 600 600" fill="none">
<defs>
  <linearGradient id="g1" x1="0" y1="0" x2="1" y2="1">
    <stop offset="0" stop-color="#1446a0"/>
    <stop offset="1" stop-color="#0d2f6e"/>
  </linearGradient>
  <linearGradient id="g2" x1="0" y1="0" x2="1" y2="1">
    <stop offset="0" stop-color="#f2c94c"/>
    <stop offset="1" stop-color="#d4a017"/>
  </linearGradient>
  <linearGradient id="g3" x1="0" y1="0" x2="1" y2="1">
    <stop offset="0" stop-color="#0e9f6e"/>
    <stop offset="1" stop-color="#0b7355"/>
  </linearGradient>
</defs>
<path d="M300 40C400 40 520 90 550 210C580 330 520 430 420 490C320 550 180 560 100 480C20 400 20 260 80 170C140 80 200 40 300 40Z" fill="url(#g1)" opacity="0.08"/>
<path d="M300 60C395 60 500 105 535 210C570 315 520 415 425 475C330 535 195 545 115 470C35 395 35 260 95 175C155 90 205 60 300 60Z" fill="url(#g3)" opacity="1" />
<circle cx="420" cy="170" r="46" fill="#f2c94c"/>
<g stroke="#f2c94c" stroke-width="6" stroke-linecap="round">
<line x1="420" y1="90" x2="420" y2="70"/>
<line x1="420" y1="250" x2="420" y2="270"/>
<line x1="340" y1="170" x2="320" y2="170"/>
<line x1="500" y1="170" x2="520" y2="170"/>
<line x1="365" y1="115" x2="350" y2="100"/>
<line x1="475" y1="115" x2="490" y2="100"/>
</g>
<line x1="200" y1="180" x2="200" y2="480" stroke="#ffffff" stroke-width="8" stroke-linecap="round"/>
<circle cx="200" cy="180" r="10" fill="#ffffff"/>
<line x1="200" y1="190" x2="140" y2="230" stroke="#ffffff" stroke-width="10" stroke-linecap="round"/>
<line x1="200" y1="190" x2="260" y2="230" stroke="#ffffff" stroke-width="10" stroke-linecap="round"/>
<line x1="200" y1="190" x2="200" y2="260" stroke="#ffffff" stroke-width="10" stroke-linecap="round"/>
<g transform="translate(300 340)">
<rect x="0" y="0" width="180" height="110" rx="10" fill="#ffffff"/>
<line x1="0" y1="27" x2="180" y2="27" stroke="#0e9f6e" stroke-width="4"/>
<line x1="0" y1="55" x2="180" y2="55" stroke="#0e9f6e" stroke-width="4"/>
<line x1="0" y1="83" x2="180" y2="83" stroke="#0e9f6e" stroke-width="4"/>
<line x1="45" y1="0" x2="45" y2="110" stroke="#0e9f6e" stroke-width="4"/>
<line x1="90" y1="0" x2="90" y2="110" stroke="#0e9f6e" stroke-width="4"/>
<line x1="135" y1="0" x2="135" y2="110" stroke="#0e9f6e" stroke-width="4"/>
</g>

</svg>