<svg xmlns="http://www.w3.org/2000/svg" viewBox="0 0 600 600" fill="none">
<defs>
  <linearGradient id="g1" x1="0" y1="0" x2="1" y2="1">
    <stop offset="0" stop-color="#1446a0"/>
    <stop offset="1" stop-color="#0d2f6e"/>
  </linearGradient>
  <linearGradient id="g2" x1="0" y1="0" x2="1" y2="1">
    <stop offset="0" stop-color="#f2c94c"/>
    <stop offset="1" stop-color="#d4a017"/>
  </linearGradient>
  <linearGradient id="g3" x1="0" y1="0" x2="1" y2="1">
    <stop offset="0" stop-color="#0e9f6e"/>
    <stop offset="1" stop-color="#0b7355"/>
  </linearGradient>
</defs>
<path d="M300 40C400 40 520 90 550 210C580 330 520 430 420 490C320 550 180 560 100 480C20 400 20 260 80 170C140 80 200 40 300 40Z" fill="url(#g1)" opacity="0.08"/>
<path d="M300 60C395 60 500 105 535 210C570 315 520 415 425 475C330 535 195 545 115 470C35 395 35 260 95 175C155 90 205 60 300 60Z" fill="url(#g1)" opacity="1" />
<rect x="220" y="260" width="160" height="120" rx="16" fill="#ffffff"/>
<rect x="265" y="230" width="70" height="40" rx="10" fill="none" stroke="#ffffff" stroke-width="8"/>
<line x1="220" y1="310" x2="380" y2="310" stroke="#1446a0" stroke-width="6"/>
<circle cx="150" cy="200" r="16" fill="#f2c94c"/>
<circle cx="460" cy="190" r="14" fill="#ffffff" opacity="0.85"/>
<circle cx="470" cy="420" r="16" fill="#f2c94c"/>
<circle cx="140" cy="420" r="12" fill="#ffffff" opacity="0.85"/>
<circle cx="300" cy="150" r="12" fill="#ffffff" opacity="0.85"/>

</svg>